<?xml version="1.0" encoding="utf-8"?>
<!-- Generator: Adobe Illustrator 21.0.2, SVG Export Plug-In . SVG Version: 6.00 Build 0)  -->
<svg version="1.1" id="Layer_1" xmlns="http://www.w3.org/2000/svg" xmlns:xlink="http://www.w3.org/1999/xlink" x="0px" y="0px"
	 viewBox="0 0 512 512" style="enable-background:new 0 0 512 512;" xml:space="preserve">
<style type="text/css">
	.st0{opacity:0.59;fill:#F0F8FF;}
	.st1{fill:#D5D5EF;}
	.st2{fill:#F0F8FF;}
	.st3{fill:#435080;}
	.st4{fill:#D18161;}
	.st5{fill:#7AB8E2;}
	.st6{fill:#FBFDFC;}
	.st7{fill:#8FCAEA;}
</style>
<g>
	<path class="st0" d="M202.8,131.6c-1.7,0.9-3.4,1.8-5.1,2.5c-34.3,15-76.6,15.3-113,14.2c-53.1-1.5-61.2,75-27.8,98.7
		s56.9,74.8,55.5,122.4c-1.5,47.7,56.7,79.3,112.9,47.7s92.9-27.4,131.1-9.1c38.2,18.3,87.2,7,84.5-25.3
		c-2.7-32.4-41.3-59.9-21.7-94.3c19.7-34.5,51-39.4,45-79.9s-47.1-75.1-92.5-67.7c-45.5,7.4-62.1-49.5-98.1-50.9
		C242.8,88.6,227.2,118,202.8,131.6z"/>
	<g>
		<g>
			<g>
				<g>
					<path class="st1" d="M389.6,136.3c3.3-16.9-7.7-33.3-24.5-36.7c-16.9-3.3-33.3,7.7-36.7,24.5c-3.3,16.9,7.7,33.3,24.5,36.7
						C369.8,164.2,386.2,153.2,389.6,136.3z M335.7,126.7L335.7,126.7c2-12.8,14-21.7,26.8-19.7l0,0c12.8,2,21.7,14,19.7,26.8l0,0
						c-2,12.8-14,21.7-26.8,19.7l0,0C342.6,151.5,333.8,139.5,335.7,126.7z"/>
					<path class="st1" d="M358,182.5c1-0.3,1.2-1.2,1.8-3.4c0.7-2.8,1.3-5.6,2.1-8.4c0.1-0.5,0.7-1.1,1.2-1.3c3.2-0.8,6-1.5,9.2-2.3
						c0.9-0.2,1.5-0.2,2.1,0.5c2.3,2.7,5.3,5.3,7.6,7.9c0.4,0.4,0.8,0.8,1.5,1.6c4.2-3.1,8.3-6.2,12.6-9.4c-2.2-3.7-4.1-7-6.2-10.3
						c-0.7-1.2-0.8-1.9,0.1-3.1c1.8-2.5,3.2-5.2,4.9-7.8c0.3-0.4,0.9-0.8,1.4-0.8c3.6,0.1,7.1,0.2,10.7,0.5c1.7,0.2,2.4-0.5,2.6-2
						c0.1-0.6,0.4-1.2,0.6-1.7c0.4-2.7,0.8-5.4,1.2-8.1c0-0.3-0.1-0.6-0.1-0.9c0.1-3.2,0.3-2.6-2.6-3.4c-3.5-0.9-7-1.8-10-2.5
						c-1.1-4.4-2.1-8.5-3.2-12.7c3.2-2.9,6.6-5.9,9.9-8.9c-2.4-4.8-5.6-8.8-9.4-12.5c-3.6,2.2-7.1,4.2-10.6,6.4
						c-0.6,0.4-1.1,0.5-1.8,0c-2.9-1.9-5.8-3.7-8.8-5.5c-0.9-0.5-1-0.9-1-1.8c0.2-3.6,0.3-7.2,0.5-10.9c0-0.9-0.2-1.4-1.1-1.7
						c-4.4-1.4-8.8-1.8-13.4-1.8c-0.9,0-1.1,0.5-1.3,1.2c-0.8,3.4-1.7,6.8-2.5,10.2c-0.2,1-0.6,1.4-1.7,1.6
						c-3.8,0.7-7.5,1.7-11.6,2.6c-2.6-2.9-5.6-6.2-8.6-9.5c-4.8,2.5-9.1,5.5-12.8,9.4c2.4,3.9,4.7,7.7,6.8,11.2
						c-1.9,3.3-3.7,6.3-5.3,9.4c-0.6,1.2-1.2,1.6-2.5,1.5c-3.5-0.3-6.9-0.4-10.4-0.5c-0.7,0-1.5-0.3-1.7,0.8c-0.7,4.5-1.3,9-2,13.5
						c-0.1,1,0.3,1.4,1.2,1.6c3.5,0.8,6.9,1.8,10.4,2.5c1.3,0.3,1.6,1,1.9,2.2c0.6,3,1.3,5.9,2.3,8.8c0.4,1.2,0.2,1.8-0.7,2.6
						c-3,2.6-6,5.3-8.9,7.9c1.1,3,6.6,10.4,9.5,12.7c3.5-2.1,7-4.2,10.4-6.4c0.9-0.5,1.4-0.4,2.2,0.1c2.7,1.7,5.4,3.2,8.1,4.8
						c0.4,0.3,0.9,1,0.9,1.5c-0.1,3.2-0.3,6.4-0.5,9.6c-0.1,1.8-0.2,2.5,0.4,3L358,182.5z M332.1,148.2c-4.8-7.2-6.5-15.8-4.8-24.2
						c1.7-8.5,6.5-15.8,13.7-20.6c7.2-4.8,15.8-6.5,24.2-4.8c8.5,1.7,15.8,6.5,20.6,13.7c4.8,7.2,6.5,15.8,4.8,24.2
						c-1.7,8.5-6.5,15.8-13.7,20.6c-7.2,4.8-15.8,6.5-24.2,4.8C344.3,160.2,336.9,155.4,332.1,148.2z"/>
				</g>
				<g>
					<path class="st1" d="M270.7,151.4c1.8-9.2-4.2-18.1-13.3-19.9c-9.2-1.8-18.1,4.2-19.9,13.3c-1.8,9.2,4.2,18.1,13.3,19.9
						C259.9,166.5,268.9,160.6,270.7,151.4z M241.4,146.2L241.4,146.2c1.1-7,7.6-11.8,14.6-10.7l0,0c7,1.1,11.8,7.6,10.7,14.6l0,0
						c-1.1,7-7.6,11.8-14.6,10.7l0,0C245.1,159.7,240.3,153.1,241.4,146.2z"/>
					<path class="st1" d="M253.5,176.5c0.5-0.2,0.7-0.6,1-1.9c0.4-1.5,0.7-3.1,1.2-4.6c0.1-0.3,0.4-0.6,0.7-0.7
						c1.8-0.4,3.2-0.8,5-1.3c0.5-0.1,0.8-0.1,1.2,0.3c1.3,1.4,2.9,2.9,4.1,4.3c0.2,0.2,0.4,0.5,0.8,0.8c2.3-1.7,4.5-3.4,6.8-5.1
						c-1.2-2-2.2-3.8-3.4-5.6c-0.4-0.6-0.4-1,0-1.7c1-1.4,1.8-2.9,2.7-4.3c0.1-0.2,0.5-0.4,0.8-0.4c1.9,0.1,3.9,0.1,5.8,0.3
						c0.9,0.1,1.3-0.3,1.4-1.1c0-0.3,0.2-0.6,0.3-1c0.2-1.5,0.4-2.9,0.7-4.4c0-0.2-0.1-0.3-0.1-0.5c0.1-1.7,0.2-1.4-1.4-1.8
						c-1.9-0.5-3.8-1-5.5-1.4c-0.6-2.4-1.2-4.6-1.7-6.9c1.7-1.6,3.6-3.2,5.4-4.9c-1.3-2.6-3.1-4.8-5.1-6.8c-2,1.2-3.9,2.3-5.8,3.5
						c-0.3,0.2-0.6,0.3-1,0c-1.6-1-3.2-2-4.8-3c-0.5-0.3-0.6-0.5-0.5-1c0.1-2,0.2-3.9,0.3-5.9c0-0.5-0.1-0.8-0.6-0.9
						c-2.4-0.8-4.8-1-7.3-1c-0.5,0-0.6,0.3-0.7,0.7c-0.4,1.9-0.9,3.7-1.4,5.6c-0.1,0.5-0.3,0.8-0.9,0.9c-2.1,0.4-4.1,0.9-6.3,1.4
						c-1.4-1.6-3-3.4-4.7-5.2c-2.6,1.3-4.9,3-6.9,5.1c1.3,2.1,2.5,4.2,3.7,6.1c-1,1.8-2,3.4-2.9,5.1c-0.3,0.6-0.7,0.9-1.4,0.8
						c-1.9-0.1-3.8-0.2-5.6-0.3c-0.4,0-0.8-0.1-0.9,0.5c-0.4,2.5-0.7,4.9-1.1,7.4c-0.1,0.5,0.2,0.7,0.7,0.9c1.9,0.4,3.8,1,5.7,1.4
						c0.7,0.2,0.9,0.5,1,1.2c0.3,1.6,0.7,3.2,1.2,4.8c0.2,0.7,0.1,1-0.4,1.4c-1.6,1.4-3.2,2.9-4.8,4.3c0.6,1.7,3.6,5.7,5.2,6.9
						c1.9-1.1,3.8-2.3,5.7-3.5c0.5-0.3,0.7-0.2,1.2,0.1c1.4,0.9,2.9,1.7,4.4,2.6c0.2,0.2,0.5,0.5,0.5,0.8c-0.1,1.7-0.2,3.5-0.3,5.2
						c-0.1,1-0.1,1.4,0.2,1.6L253.5,176.5z M239.5,157.9c-2.6-3.9-3.5-8.6-2.6-13.2c0.9-4.6,3.6-8.6,7.5-11.2
						c3.9-2.6,8.6-3.5,13.2-2.6c4.6,0.9,8.6,3.6,11.2,7.5c2.6,3.9,3.5,8.6,2.6,13.2c-0.9,4.6-3.6,8.6-7.5,11.2
						c-3.9,2.6-8.6,3.5-13.2,2.6C246,164.4,242.1,161.8,239.5,157.9z"/>
				</g>
				<g>
					<path class="st1" d="M312.6,204.4c1.1-5.5-2.5-10.8-7.9-11.9c-5.5-1.1-10.8,2.5-11.9,7.9c-1.1,5.5,2.5,10.8,7.9,11.9
						C306.2,213.5,311.5,209.9,312.6,204.4z M295.1,201.3L295.1,201.3c0.6-4.2,4.5-7,8.7-6.4l0,0c4.2,0.6,7,4.5,6.4,8.7l0,0
						c-0.6,4.2-4.5,7-8.7,6.4l0,0C297.4,209.4,294.5,205.5,295.1,201.3z"/>
					<path class="st1" d="M302.3,219.4c0.3-0.1,0.4-0.4,0.6-1.1c0.2-0.9,0.4-1.8,0.7-2.7c0-0.2,0.2-0.4,0.4-0.4c1-0.3,1.9-0.5,3-0.7
						c0.3-0.1,0.5-0.1,0.7,0.2c0.7,0.9,1.7,1.7,2.5,2.5c0.1,0.1,0.3,0.3,0.5,0.5c1.4-1,2.7-2,4.1-3c-0.7-1.2-1.3-2.3-2-3.3
						c-0.2-0.4-0.3-0.6,0-1c0.6-0.8,1-1.7,1.6-2.5c0.1-0.1,0.3-0.2,0.5-0.2c1.2,0,2.3,0.1,3.5,0.2c0.6,0,0.8-0.2,0.8-0.7
						c0-0.2,0.1-0.4,0.2-0.6c0.1-0.9,0.3-1.7,0.4-2.6c0-0.1,0-0.2,0-0.3c0-1,0.1-0.8-0.8-1.1c-1.1-0.3-2.3-0.6-3.2-0.8
						c-0.4-1.4-0.7-2.7-1-4.1c1-0.9,2.1-1.9,3.2-2.9c-0.8-1.5-1.8-2.8-3-4c-1.2,0.7-2.3,1.4-3.4,2.1c-0.2,0.1-0.3,0.2-0.6,0
						c-0.9-0.6-1.9-1.2-2.8-1.8c-0.3-0.2-0.3-0.3-0.3-0.6c0.1-1.2,0.1-2.3,0.2-3.5c0-0.3-0.1-0.5-0.4-0.6c-1.4-0.4-2.9-0.6-4.3-0.6
						c-0.3,0-0.4,0.2-0.4,0.4c-0.3,1.1-0.6,2.2-0.8,3.3c-0.1,0.3-0.2,0.4-0.5,0.5c-1.2,0.2-2.4,0.5-3.8,0.8c-0.8-0.9-1.8-2-2.8-3.1
						c-1.6,0.8-2.9,1.8-4.1,3c0.8,1.3,1.5,2.5,2.2,3.6c-0.6,1.1-1.2,2-1.7,3c-0.2,0.4-0.4,0.5-0.8,0.5c-1.1-0.1-2.2-0.1-3.4-0.2
						c-0.2,0-0.5-0.1-0.6,0.3c-0.2,1.5-0.4,2.9-0.6,4.4c0,0.3,0.1,0.4,0.4,0.5c1.1,0.3,2.2,0.6,3.4,0.8c0.4,0.1,0.5,0.3,0.6,0.7
						c0.2,1,0.4,1.9,0.7,2.8c0.1,0.4,0.1,0.6-0.2,0.8c-1,0.8-1.9,1.7-2.9,2.5c0.3,1,2.1,3.4,3.1,4.1c1.1-0.7,2.3-1.4,3.4-2.1
						c0.3-0.2,0.4-0.1,0.7,0c0.9,0.5,1.8,1,2.6,1.6c0.1,0.1,0.3,0.3,0.3,0.5c0,1-0.1,2.1-0.2,3.1c0,0.6-0.1,0.8,0.1,1L302.3,219.4z
						 M294,208.3c-1.6-2.3-2.1-5.1-1.6-7.8c0.5-2.7,2.1-5.1,4.4-6.7c2.3-1.6,5.1-2.1,7.8-1.6c2.7,0.5,5.1,2.1,6.7,4.4
						c1.6,2.3,2.1,5.1,1.6,7.8c-0.5,2.7-2.1,5.1-4.4,6.7c-2.3,1.6-5.1,2.1-7.8,1.6C297.9,212.2,295.5,210.6,294,208.3z"/>
				</g>
			</g>
			<g>
				
					<rect x="69.6" y="101.7" transform="matrix(-1 -1.224647e-16 1.224647e-16 -1 256.7495 290.7061)" class="st2" width="117.5" height="87.3"/>
				<rect x="66" y="101.7" class="st1" width="117.5" height="87.3"/>
				<rect x="74" y="112.7" class="st2" width="101.8" height="68.7"/>
				<path class="st3" d="M78.2,147.8c0,0,17.4-2.2,28,7.6c10.6,9.8,30.4,0.9,38.4,0c13.8-1.5,24.7,3,27.9,8v14.9H78.2V147.8z"/>
				<rect x="91.6" y="123.8" class="st3" width="0.7" height="23.3"/>
				<rect x="120.2" y="133.8" class="st3" width="0.7" height="23.3"/>
				<rect x="149.7" y="128.5" class="st3" width="0.7" height="23.3"/>
				<path class="st3" d="M100.5,127.4h-5.6c-0.3,0-0.6-0.3-0.6-0.6l0,0c0-0.3,0.3-0.6,0.6-0.6h5.6c0.3,0,0.6,0.3,0.6,0.6l0,0
					C101.1,127.1,100.8,127.4,100.5,127.4z"/>
				<path class="st3" d="M100.5,129.5h-5.6c-0.3,0-0.6-0.3-0.6-0.6l0,0c0-0.3,0.3-0.6,0.6-0.6h5.6c0.3,0,0.6,0.3,0.6,0.6l0,0
					C101.1,129.3,100.8,129.5,100.5,129.5z"/>
				<path class="st3" d="M128.6,139.2H123c-0.3,0-0.6-0.3-0.6-0.6l0,0c0-0.3,0.3-0.6,0.6-0.6h5.6c0.3,0,0.6,0.3,0.6,0.6l0,0
					C129.2,139,129,139.2,128.6,139.2z"/>
				<path class="st3" d="M128.6,141.4H123c-0.3,0-0.6-0.3-0.6-0.6l0,0c0-0.3,0.3-0.6,0.6-0.6h5.6c0.3,0,0.6,0.3,0.6,0.6l0,0
					C129.2,141.1,129,141.4,128.6,141.4z"/>
				<path class="st3" d="M158.6,130.4H153c-0.3,0-0.6-0.3-0.6-0.6l0,0c0-0.3,0.3-0.6,0.6-0.6h5.6c0.3,0,0.6,0.3,0.6,0.6l0,0
					C159.2,130.2,158.9,130.4,158.6,130.4z"/>
				<path class="st3" d="M158.6,132.6H153c-0.3,0-0.6-0.3-0.6-0.6l0,0c0-0.3,0.3-0.6,0.6-0.6h5.6c0.3,0,0.6,0.3,0.6,0.6l0,0
					C159.2,132.3,158.9,132.6,158.6,132.6z"/>
			</g>
			<g>
				<rect x="268.5" y="239.9" class="st1" width="116.5" height="127.6"/>
				<rect x="279.8" y="249.7" class="st2" width="93.8" height="104.5"/>
				<g>
					<rect x="288.1" y="287" class="st3" width="9.9" height="61.7"/>
					<rect x="304.4" y="269.9" class="st3" width="9.9" height="78.8"/>
					<rect x="322.1" y="302" class="st3" width="9.9" height="46.7"/>
					<rect x="339.3" y="280.4" class="st3" width="9.9" height="68.3"/>
					<rect x="356.6" y="311.1" class="st3" width="9.9" height="37.6"/>
				</g>
				<g>
					<path class="st3" d="M348.7,271.5h-8.4c-0.5,0-0.9,0.4-0.9,0.9c0,0.5,0.4,0.9,0.9,0.9h8.4c0.5,0,0.9-0.4,0.9-0.9
						C349.6,271.9,349.2,271.5,348.7,271.5z"/>
					<path class="st3" d="M342.2,274.7h-1.9c-0.5,0-0.9,0.4-0.9,0.9c0,0.5,0.4,0.9,0.9,0.9h1.9c0.5,0,0.9-0.4,0.9-0.9
						C343.1,275,342.7,274.7,342.2,274.7z"/>
					<path class="st3" d="M314.2,258.1h-8.4c-0.5,0-0.9,0.4-0.9,0.9c0,0.5,0.4,0.9,0.9,0.9h8.4c0.5,0,0.9-0.4,0.9-0.9
						C315,258.5,314.6,258.1,314.2,258.1z"/>
					<path class="st3" d="M307.7,261.2h-1.9c-0.5,0-0.9,0.4-0.9,0.9l0,0c0,0.5,0.4,0.9,0.9,0.9h1.9c0.5,0,0.9-0.4,0.9-0.9l0,0
						C308.5,261.6,308.2,261.2,307.7,261.2z"/>
					<path class="st3" d="M331.2,292.8h-8.4c-0.5,0-0.9,0.4-0.9,0.9c0,0.5,0.4,0.9,0.9,0.9h8.4c0.5,0,0.9-0.4,0.9-0.9
						C332.1,293.1,331.7,292.8,331.2,292.8z"/>
					<path class="st3" d="M324.7,295.9h-1.9c-0.5,0-0.9,0.4-0.9,0.9l0,0c0,0.5,0.4,0.9,0.9,0.9h1.9c0.5,0,0.9-0.4,0.9-0.9l0,0
						C325.6,296.3,325.2,295.9,324.7,295.9z"/>
					<path class="st3" d="M365.7,302h-8.4c-0.5,0-0.9,0.4-0.9,0.9c0,0.5,0.4,0.9,0.9,0.9h8.4c0.5,0,0.9-0.4,0.9-0.9
						C366.6,302.3,366.2,302,365.7,302z"/>
					<path class="st3" d="M359.2,305.1h-1.9c-0.5,0-0.9,0.4-0.9,0.9c0,0.5,0.4,0.9,0.9,0.9h1.9c0.5,0,0.9-0.4,0.9-0.9
						C360.1,305.5,359.7,305.1,359.2,305.1z"/>
				</g>
			</g>
			<g>
				<rect x="93.4" y="197.8" class="st2" width="152.6" height="85.9"/>
				<rect x="98.3" y="197.8" class="st1" width="152.6" height="85.9"/>
				<circle class="st2" cx="140.1" cy="238.8" r="27.6"/>
				<g>
					<path class="st3" d="M233.8,223.4h-45.7c-1.7,0-3,1.4-3,3l0,0c0,1.7,1.4,3,3,3h45.7c1.7,0,3-1.4,3-3l0,0
						C236.8,224.8,235.4,223.4,233.8,223.4z"/>
					<path class="st3" d="M233.8,235.8h-45.7c-1.7,0-3,1.4-3,3l0,0c0,1.7,1.4,3,3,3h45.7c1.7,0,3-1.4,3-3l0,0
						C236.8,237.2,235.4,235.8,233.8,235.8z"/>
					<path class="st3" d="M233.8,248.2h-45.7c-1.7,0-3,1.4-3,3c0,1.7,1.4,3,3,3h45.7c1.7,0,3-1.4,3-3
						C236.8,249.6,235.4,248.2,233.8,248.2z"/>
				</g>
				<path class="st3" d="M114.8,238.4h25.3v-25.3C126.1,213.1,114.8,224.5,114.8,238.4z"/>
				<path class="st3" d="M165.3,239.2h-25.3h0h-25.3c0,14,11.3,25.3,25.3,25.3l0,0l0,0c0,0,0,0,0,0h0
					C154,264.5,165.3,253.2,165.3,239.2z"/>
				<g>
					<path class="st1" d="M135.7,225.4H122c-0.8,0-1.4,0.6-1.4,1.4s0.6,1.4,1.4,1.4h13.7c0.8,0,1.4-0.6,1.4-1.4
						S136.5,225.4,135.7,225.4z"/>
					<path class="st1" d="M125.1,230.6H122c-0.8,0-1.4,0.6-1.4,1.4c0,0.8,0.6,1.4,1.4,1.4h3.1c0.8,0,1.4-0.6,1.4-1.4
						C126.5,231.2,125.9,230.6,125.1,230.6z"/>
				</g>
				<g>
					<path class="st1" d="M156.1,245.4h-13.7c-0.8,0-1.4,0.6-1.4,1.4c0,0.8,0.6,1.4,1.4,1.4h13.7c0.8,0,1.4-0.6,1.4-1.4
						C157.5,246,156.8,245.4,156.1,245.4z"/>
					<path class="st1" d="M145.5,250.6h-3.1c-0.8,0-1.4,0.6-1.4,1.4l0,0c0,0.8,0.6,1.4,1.4,1.4h3.1c0.8,0,1.4-0.6,1.4-1.4l0,0
						C146.9,251.2,146.3,250.6,145.5,250.6z"/>
				</g>
			</g>
			<g>
				<path class="st2" d="M68.7,292.5v73.9l118.4,0.3v-73.9L68.7,292.5z"/>
				<path class="st1" d="M72.9,292.5v73.9l114.2,0.3v-73.9L72.9,292.5z"/>
				<circle class="st2" cx="108" cy="327.2" r="23.2"/>
				<g>
					<path class="st3" d="M143.2,322.3h34c1.2,0,2.2-1,2.2-2.2c0-1.2-1-2.2-2.2-2.2h-34c-1.2,0-2.2,1-2.2,2.2
						C140.9,321.3,141.9,322.3,143.2,322.3z"/>
					<path class="st3" d="M177.2,327h-34c-1.2,0-2.2,1-2.2,2.2c0,1.2,1,2.2,2.2,2.2h34c1.2,0,2.2-1,2.2-2.2
						C179.4,328.1,178.4,327,177.2,327z"/>
					<path class="st3" d="M177.2,336.3h-34c-1.2,0-2.2,1-2.2,2.2l0,0c0,1.2,1,2.2,2.2,2.2h34c1.2,0,2.2-1,2.2-2.2l0,0
						C179.4,337.3,178.4,336.3,177.2,336.3z"/>
				</g>
				<path class="st3" d="M108,327.6l-21.3-0.3c0,0.1,0,0.2,0,0.3c0,11.7,9.5,21.3,21.3,21.3c4.2,0,8.1-1.2,11.4-3.3L108,327.6z"/>
				<g>
					<path class="st1" d="M108.8,334.2H97.3c-0.7,0-1.2,0.5-1.2,1.2v0c0,0.7,0.5,1.2,1.2,1.2h11.5c0.7,0,1.2-0.5,1.2-1.2v0
						C110,334.8,109.5,334.2,108.8,334.2z"/>
					<path class="st1" d="M99.9,338.6h-2.6c-0.7,0-1.2,0.5-1.2,1.2c0,0.7,0.5,1.2,1.2,1.2h2.6c0.7,0,1.2-0.5,1.2-1.2
						C101.1,339.1,100.6,338.6,99.9,338.6z"/>
				</g>
			</g>
		</g>
		<g>
			<g>
				<g>
					<g>
						<g>
							<g>
								<g>
									<g>
										<g>
											<g>
												<g>
													<polygon class="st4" points="378.2,428.8 394.5,429 394.8,413.7 378.5,411.7 													"/>
												</g>
											</g>
										</g>
									</g>
								</g>
							</g>
						</g>
					</g>
				</g>
				<g>
					<g>
						<g>
							<g>
								<g>
									<g>
										<path class="st3" d="M361.5,431.6h33.3v-6.7c0,0-2.4-3.2-6.1-1.6c0,0-5.5,3.9-10.4-0.8l-12.3,5.3
											C366,427.8,361.5,429.3,361.5,431.6z"/>
									</g>
								</g>
							</g>
						</g>
					</g>
					<g>
						<g>
							<g>
								<g>
									<g>
										<path class="st3" d="M394.8,433.9h-33.6c-0.6,0-1.1-0.5-1.1-1.1v-0.1c0-0.6,0.5-1.1,1.1-1.1h33.6V433.9z"/>
									</g>
								</g>
							</g>
						</g>
					</g>
					<g>
						<g>
							<g>
								<g>
									<g>
										<path class="st3" d="M374.7,424.1c1.1,1.7,3.4,5.2,4.8,7.5h2.3c-1.3-2-3.9-6.2-5.3-8.2L374.7,424.1z"/>
									</g>
								</g>
							</g>
						</g>
					</g>
					<g>
						<g>
							<g>
								<g>
									<g>
										<path class="st3" d="M375.8,431.6h2.3c-1-1.6-3.1-4.8-4.5-7l-1.8,0.8C373,427.2,374.7,429.8,375.8,431.6z"/>
									</g>
								</g>
							</g>
						</g>
					</g>
				</g>
				<g>
					<g>
						<g>
							<g>
								<g>
									<g>
										<g>
											<g>
												<g>
													<polygon class="st4" points="411.1,428.8 427.4,429 427.6,413.7 411.4,411.7 													"/>
												</g>
											</g>
										</g>
									</g>
								</g>
							</g>
						</g>
					</g>
				</g>
				<g>
					<g>
						<g>
							<g>
								<g>
									<g>
										<g>
											<path class="st3" d="M404.6,295.8c-0.5,15.9-2.9,77.9-7.8,118.5c-0.3,2.7-2.6,4.7-5.3,4.7c-3,0-7.1-0.4-11.7-1.8
												c-2.2-0.7-3.8-2.7-3.8-5l-2-123.5c0-0.3,0-0.6,0.1-0.9l0.1-0.6c0.5-3.4,4-5.4,7.2-4.2l19.9,7.6
												C403.3,291.5,404.6,293.6,404.6,295.8z"/>
										</g>
									</g>
								</g>
							</g>
						</g>
					</g>
				</g>
				<g>
					<g>
						<g>
							<g>
								<g>
									<g>
										<g>
											<path class="st3" d="M431.2,292.6c0,0,1.4,76.3-2.2,123.4c-0.2,2.2-1.9,4-4.2,4.2c-3.2,0.2-8,0.2-13.4-1.2
												c-1.8-0.5-3.2-2.1-3.3-4l-9.4-109.4l-5.8-30.4L431.2,292.6z"/>
										</g>
									</g>
								</g>
							</g>
						</g>
					</g>
				</g>
				<g>
					<g>
						<g>
							<g>
								<g>
									<g>
										<path class="st3" d="M394.3,431.6h33.3v-6.7c0,0-2.4-3.2-6.1-1.6c0,0-5.5,3.9-10.4-0.8l-12.3,5.3
											C398.8,427.8,394.3,429.3,394.3,431.6z"/>
									</g>
								</g>
							</g>
						</g>
					</g>
					<g>
						<g>
							<g>
								<g>
									<g>
										<path class="st3" d="M427.6,433.9H394c-0.6,0-1.1-0.5-1.1-1.1v-0.1c0-0.6,0.5-1.1,1.1-1.1h33.6V433.9z"/>
									</g>
								</g>
							</g>
						</g>
					</g>
					<g>
						<g>
							<g>
								<g>
									<g>
										<path class="st3" d="M407.5,424.1c1.1,1.7,3.4,5.2,4.8,7.5h2.3c-1.3-2-3.9-6.2-5.3-8.2L407.5,424.1z"/>
									</g>
								</g>
							</g>
						</g>
					</g>
					<g>
						<g>
							<g>
								<g>
									<g>
										<path class="st3" d="M408.6,431.6h2.3c-1-1.6-3.1-4.8-4.5-7l-1.8,0.8C405.8,427.2,407.5,429.8,408.6,431.6z"/>
									</g>
								</g>
							</g>
						</g>
					</g>
				</g>
			</g>
			<g>
				<g>
					<g>
						<g>
							<path class="st5" d="M372.7,311.7l-0.2-0.3l1-58.9c0,0-18.7,7.5-24.1,7.7c-5.4,0.2-34.3-32.2-34.3-32.2
								c4.7-11.6,11-14.9,11-14.9l29.1,25.8l21.7-21.1c2.9-1.9,25.1-2.3,25.1-2.3s17.4-1,20.3,0.9c2.9,1.9,21.4,33.2,23,47.2
								c1.7,14,0,23.1-10,24.8l-3.6,0.1l-0.3,23.1C431.6,311.7,411.4,316.5,372.7,311.7L372.7,311.7z"/>
						</g>
					</g>
				</g>
				<g>
					<g>
						<path class="st5" d="M326.2,213.1l24.9,22l25.9-17.3c1.1-0.7,4.9-1.2,9.2-1.6l13,33.2l19.7-34c6.9,0.1,8.7,1.8,10.2,2.8
							c2.9,1.9,14.7,31.3,16.4,45.4c1.7,14,0,23.1-10,24.8l-3.6,0.1l1,23.1c0,0-21.5,4.9-60.1,0l-0.2-0.3l1-58.9
							c0,0-18.7,7.5-24.1,7.7c-5.4,0.2-34.3-32.2-34.3-32.2C319.9,216.4,326.2,213.1,326.2,213.1z"/>
					</g>
				</g>
			</g>
			<g>
				<g>
					<g>
						<g>
							<path class="st4" d="M407.3,191c0,0-4.8-2.1-9.1-0.6c-2.5,0.9-4.1,3.2-4.1,5.8v2.6l13.2-5.6c0,0,2.1,1,1.9,0.7
								C409,193.6,407.3,191,407.3,191z"/>
						</g>
					</g>
				</g>
				<g>
					<g>
						<g>
							<g>
								<g>
									<g>
										<path class="st4" d="M394,196v10.8c0,0-0.2,3.9,3.2,4.4l-0.6,5.2c-0.2,1.9,0.9,3.8,2.8,4.3c0.9,0.3,2,0.5,3.2,0.5
											c3.9,0,6-2.9,6.3-4.4c0.3-1.5-0.6-8.4-0.6-8.4l0.1-3.4l-0.4-13.2L394,196z"/>
									</g>
								</g>
							</g>
						</g>
					</g>
					<g>
						<g>
							<g>
								<g>
									<g>
										<circle cx="400.6" cy="201.7" r="0.5"/>
									</g>
								</g>
							</g>
						</g>
					</g>
					<g>
						<g>
							<g>
								<g>
									<g>
										<circle cx="395.5" cy="201.2" r="0.5"/>
									</g>
								</g>
							</g>
						</g>
					</g>
					<g>
						<g>
							<g>
								<g>
									<g>
										<path class="st3" d="M407.3,190.8c0,0,4.1-0.2,5.1,3.4c1,3.6-0.7,5.5-0.8,6.5c0,1.1,0.7,8.3-4.4,7.7l-1.4-11.9l1.8-4.7
											L407.3,190.8z"/>
									</g>
								</g>
							</g>
						</g>
					</g>
					<g>
						<g>
							<g>
								<g>
									<g>
										<circle class="st4" cx="407" cy="201.5" r="2.9"/>
									</g>
								</g>
							</g>
						</g>
					</g>
					<g>
						<g>
							<g>
								<polygon class="st4" points="408.3,209.3 407.8,203.8 406.4,204 406.4,209.5 								"/>
							</g>
						</g>
					</g>
				</g>
				<g>
					<g>
						<g>
							<path class="st3" d="M406.5,190.7c0,0,0.9,2.3-0.6,6c-1.6,3.8,4-1.4,4-1.4S409.5,189.8,406.5,190.7z"/>
						</g>
					</g>
				</g>
			</g>
			<g>
				<g>
					<g>
						<path class="st3" d="M405.9,196.8c0,0-12.3-0.7-13.1-3.6c-0.8-2.9,2.1-3,2.1-3s-0.5-4.1,3.2-2.9c3.7,1.2,10.6,1.1,12.6,4.5
							C412.7,195.2,405.9,196.8,405.9,196.8z"/>
					</g>
				</g>
			</g>
			<g>
				<g>
					<path class="st3" d="M406.2,198.8l-0.5,2.2l-0.5-0.7c0,0-1.1-3.2-0.3-4.8c0.7-1.6,3.6,0.7,3.6,0.7L406.2,198.8z"/>
				</g>
			</g>
			<g>
				<g>
					<g>
						<g>
							<g>
								<g>
									<path class="st6" d="M396.3,206.3c0.1,0,3.4-0.3,3.4-0.3s-0.3,1.4-1.6,1.5C396.9,207.7,396.3,206.3,396.3,206.3z"/>
								</g>
							</g>
						</g>
					</g>
				</g>
			</g>
			<path class="st7" d="M391.5,264.7c0,0-1.9,10,3.9,25h36c0,0,4.6-0.6,7.5-2.2s7-3.7,7.1-15s-2.5-18.6-3.8-22.9
				c-1.4-4.3-6.9-21.2-10-26.2s-3.6-7.6-12.4-7.8c-8.9-0.2-9.5,11.5-8.8,13.8c1.2,4,12,28.9,9.6,33.9
				C418.6,267.2,391.5,264.7,391.5,264.7z"/>
			<path class="st4" d="M322.4,218.1c0,0-3.4-5.2-6.3-6.6s-2.3,3.1-0.9,5.1c0,0-7-7.2-13.7-5.8c-6.7,1.4,6.5,11.8,17.8,12.7
				C319.3,223.5,322.7,222.1,322.4,218.1z"/>
			<path class="st4" d="M393.1,275.2c0,0-5.8-3.3-9.3-2.9c-2.9,0.4-1,3.5,1.9,4.4c0,0-9.7-2.9-11.8,0c-2.1,2.9,10.9,6.9,20,4.8
				C393.8,281.4,394.4,277.8,393.1,275.2z"/>
		</g>
	</g>
</g>
</svg>
